<?xml version="1.0" encoding="UTF-8"?>
<svg id="Layer_2" data-name="Layer 2" xmlns="http://www.w3.org/2000/svg" viewBox="0 0 749.42 178.38">
  <defs>
    <style>
      .cls-1 {
        font-family: Poppins-Regular, Poppins;
        font-size: 22.39px;
        letter-spacing: .09em;
      }

      .cls-1, .cls-2, .cls-3 {
        fill: #0360af;
      }

      .cls-2 {
        font-family: Poppins-Bold, Poppins;
        font-size: 77.06px;
        font-weight: 700;
      }

      .cls-4 {
        fill: #ffb727;
      }

      .cls-4, .cls-3 {
        stroke-width: 0px;
      }
    </style>
  </defs>
  <g id="Layer_3" data-name="Layer 3">
    <g>
      <g>
        <g>
          <path class="cls-3" d="m99.59,76.77c-11.75-11.75-10.46-30.09-1-39.56,9.43-9.43,33.42-14.33,45.18-2.57,11.76,11.76,6.86,35.76-2.57,45.18-9.47,9.47-29.87,8.69-41.62-3.06Zm37.99-35.93c-7.79-7.79-26.14-4.08-32.79,2.57-6.05,6.05-4.2,17.75,4.14,26.09,8.33,8.33,20.04,10.19,26.09,4.14,6.65-6.65,10.36-25,2.57-32.79Z"/>
          <path class="cls-3" d="m0,178.38v-58.82c0-9.99,3.89-19.37,10.95-26.44,7.06-7.06,16.45-10.95,26.44-10.95h47.18c3.11,0,6.03,1.21,8.23,3.41s3.41,5.12,3.41,8.23v47.18c0,9.99-3.89,19.37-10.95,26.44-7.06,7.06-16.45,10.95-26.44,10.95H0Zm86.27-86.88c-.52-.39-1.17-.56-1.82-.56h-47.07c-7.65,0-14.83,2.98-20.24,8.38-5.41,5.41-8.38,12.59-8.38,20.24v50.05s50.06,0,50.06,0c7.65,0,14.83-2.98,20.24-8.38,5.41-5.41,8.38-12.59,8.38-20.24v-47.18c0-.91-.42-1.76-1.17-2.32Z"/>
          <path class="cls-3" d="m177.94,116.64c0-20.61-16.77-37.39-37.39-37.39h-28.85c-7.19,0-13.02-5.83-13.02-13.02v-28.85C98.69,16.77,81.92,0,61.3,0H13.16s0,47.7,0,47.7c0,9.3,3.27,18.38,9.47,25.31,7.2,8.05,17.22,12.52,27.92,12.52h35.43c3.55,0,6.43,2.88,6.43,6.43v34.99c0,9.3,3.26,18.37,9.46,25.3,7.2,8.06,17.22,12.53,27.93,12.53h48.14v-48.14Zm-127.4-39.87c-7.86,0-15.24-3.15-20.7-8.85s-7.92-12.73-7.92-20.23V8.76s39.38,0,39.38,0c15.78,0,28.62,12.84,28.62,28.62v39.38h-39.38Zm79.25,79.25c-7.87,0-15.25-3.15-20.71-8.86-5.18-5.42-7.91-12.73-7.91-20.22v-38.92s39.38,0,39.38,0c15.78,0,28.63,12.84,28.62,28.62v39.38h-39.38Z"/>
        </g>
        <path class="cls-3" d="m81.39,137.4c-5.53-2.91-11.23-6.72-16.72-11.7-10.33-9.37-16.67-19.92-20.54-29.16,0,0,0,0,0,0h-3.02c-1.2,0-2.38.09-3.53.24,0,0,0,0,0,0,4.06,10.41,11.03,22.67,22.95,33.48,6.55,5.95,13.38,10.34,19.93,13.59.56-2.06.88-4.22.93-6.45Z"/>
        <path class="cls-3" d="m57.7,163.24s0,0,0,0c-6.54-3.07-13.42-7.36-20.01-13.34-12.03-10.9-18.64-23.41-22.26-33.58-.57,2.17-.88,4.44-.88,6.79v6.63c4.22,8.16,10.29,16.83,19,24.73,3.85,3.48,7.78,6.44,11.69,8.94h9.6c.97,0,1.92-.05,2.86-.16Z"/>
        <path class="cls-4" d="m108.73,45.82c-4.72,4.72-3.28,13.86,3.23,20.36,6.5,6.5,15.64,7.95,20.36,3.23,4.32-4.32,7.05-14.98,4.32-21.94l-.76-1.59c-.44-.76-.95-1.46-1.56-2.07-6.08-6.08-20.4-3.19-25.59,2Z"/>
        <path class="cls-3" d="m60.26,15.36h-31.74v31.04c0,6.11,2.12,12.14,6.33,16.57,4.4,4.64,10.37,7.2,16.74,7.2h31.74v-31.74c0-12.72-10.35-23.07-23.07-23.07Z"/>
        <path class="cls-3" d="m139.53,94.53h-31.84v31.14c0,6.13,2.12,12.18,6.35,16.62,4.42,4.65,10.41,7.22,16.8,7.22h31.84v-31.84c0-12.76-10.38-23.14-23.14-23.14Z"/>
        <polygon class="cls-3" points="131.53 33.3 131.53 11.54 138.09 18.09 138.09 39.85 131.53 33.3"/>
        <polygon class="cls-3" points="144.88 46.65 166.64 46.65 160.09 40.09 138.33 40.09 144.88 46.65"/>
        <g>
          <path class="cls-4" d="m81.4,100.27v36.56c0,.19,0,.38,0,.57-5.53-2.91-11.23-6.72-16.72-11.7-10.33-9.37-16.67-19.92-20.54-29.16h33.54c2.06,0,3.73,1.67,3.73,3.73Z"/>
          <path class="cls-4" d="m80.46,143.85c-2.83,10.38-11.8,18.23-22.77,19.39-6.54-3.07-13.42-7.36-20.01-13.34-12.03-10.9-18.64-23.41-22.26-33.58,2.71-10.28,11.42-18.12,22.16-19.54,4.06,10.41,11.03,22.67,22.95,33.48,6.55,5.95,13.38,10.34,19.93,13.59Z"/>
          <path class="cls-4" d="m45.23,163.4H14.54v-33.67c4.22,8.16,10.29,16.83,19,24.73,3.85,3.48,7.78,6.44,11.69,8.94Z"/>
        </g>
      </g>
      <g>
        <text class="cls-2" transform="translate(210.14 93.65)"><tspan x="0" y="0">Sains Logistik</tspan></text>
        <text class="cls-1" transform="translate(213.37 140.05)"><tspan x="0" y="0">Spread Excelent Services</tspan></text>
      </g>
    </g>
  </g>
</svg>