<svg xmlns="http://www.w3.org/2000/svg" xmlns:xlink="http://www.w3.org/1999/xlink" viewBox="0 0 156.4 33.27"><defs><style>.cls-1{fill:#ffab27;}.cls-2{fill:#0e61a1;}.cls-3{fill:#0360a3;}.cls-4{clip-path:url(#clip-path);}.cls-5{fill:none;stroke:#0360a3;stroke-miterlimit:10;stroke-width:1.15px;}</style><clipPath id="clip-path"><path class="cls-1" d="M2.71,30.48V23a5,5,0,0,1,5-4.95h6.82a.69.69,0,0,1,.69.69v6.82a5,5,0,0,1-4.95,5Z"/></clipPath></defs><g id="Layer_2" data-name="Layer 2"><g id="Layer_1-2" data-name="Layer 1"><path class="cls-2" d="M42.66,16.29A3.67,3.67,0,0,1,41,15.06a3.34,3.34,0,0,1-.64-2h3a1.47,1.47,0,0,0,.46,1,1.42,1.42,0,0,0,1,.35,1.55,1.55,0,0,0,1-.3,1,1,0,0,0,.36-.8.94.94,0,0,0-.29-.72,2.19,2.19,0,0,0-.72-.47q-.42-.18-1.2-.42a12.1,12.1,0,0,1-1.86-.7,3.37,3.37,0,0,1-1.23-1,2.86,2.86,0,0,1-.52-1.79,3.07,3.07,0,0,1,1.19-2.56,4.83,4.83,0,0,1,3.08-.93,4.91,4.91,0,0,1,3.12.93,3.31,3.31,0,0,1,1.27,2.58H46a1.19,1.19,0,0,0-.41-.89,1.48,1.48,0,0,0-1-.33,1.19,1.19,0,0,0-.83.28,1,1,0,0,0-.32.79A1,1,0,0,0,44,9a8.37,8.37,0,0,0,1.66.69,14.86,14.86,0,0,1,1.85.73,3.39,3.39,0,0,1,1.22,1,2.69,2.69,0,0,1,.52,1.72,3.38,3.38,0,0,1-.51,1.82,3.6,3.6,0,0,1-1.47,1.3,5.12,5.12,0,0,1-2.29.48A6,6,0,0,1,42.66,16.29Z"/><path class="cls-2" d="M51,9.4a3.93,3.93,0,0,1,1.48-1.66,3.82,3.82,0,0,1,2.08-.59,3.56,3.56,0,0,1,1.73.4,3,3,0,0,1,1.14,1V7.28h2.85v9.31H57.39V15.28a3.11,3.11,0,0,1-1.16,1,3.65,3.65,0,0,1-1.73.4,3.8,3.8,0,0,1-2.06-.59A4.08,4.08,0,0,1,51,14.45a5.64,5.64,0,0,1-.54-2.53A5.63,5.63,0,0,1,51,9.4Zm5.84.85a2,2,0,0,0-2.89,0,2.3,2.3,0,0,0-.59,1.67,2.39,2.39,0,0,0,.59,1.7,2,2,0,0,0,2.89,0,2.38,2.38,0,0,0,.59-1.69A2.38,2.38,0,0,0,56.8,10.25Z"/><path class="cls-2" d="M62.52,5.87a1.4,1.4,0,0,1-.47-1.09,1.45,1.45,0,0,1,.47-1.11,1.76,1.76,0,0,1,1.23-.44A1.73,1.73,0,0,1,65,3.67a1.49,1.49,0,0,1,.47,1.11A1.43,1.43,0,0,1,65,5.87a1.69,1.69,0,0,1-1.21.45A1.73,1.73,0,0,1,62.52,5.87Zm2.65,1.41v9.31H62.31V7.28Z"/><path class="cls-2" d="M75.52,8.24a4.16,4.16,0,0,1,1,2.92v5.43H73.66V11.54a2,2,0,0,0-.48-1.45,1.7,1.7,0,0,0-1.31-.52,1.68,1.68,0,0,0-1.3.52,2,2,0,0,0-.48,1.45v5.05H67.23V7.28h2.86V8.52a3,3,0,0,1,1.17-1,3.7,3.7,0,0,1,1.65-.36A3.4,3.4,0,0,1,75.52,8.24Z"/><path class="cls-2" d="M80.1,16.31a3.79,3.79,0,0,1-1.5-1.14A3,3,0,0,1,78,13.54H80.8a1.08,1.08,0,0,0,.45.79,1.62,1.62,0,0,0,1,.3,1.38,1.38,0,0,0,.82-.21.62.62,0,0,0,.29-.54.64.64,0,0,0-.41-.6,8.77,8.77,0,0,0-1.36-.42,13.79,13.79,0,0,1-1.66-.49,2.93,2.93,0,0,1-1.15-.82A2.21,2.21,0,0,1,78.28,10a2.59,2.59,0,0,1,.44-1.46,3.06,3.06,0,0,1,1.3-1,5.14,5.14,0,0,1,2-.38A4.08,4.08,0,0,1,84.83,8,3.38,3.38,0,0,1,86,10.32H83.35a1.12,1.12,0,0,0-.42-.77A1.48,1.48,0,0,0,82,9.27a1.29,1.29,0,0,0-.77.19A.61.61,0,0,0,81,10a.65.65,0,0,0,.43.6,7.42,7.42,0,0,0,1.32.4,16.13,16.13,0,0,1,1.69.52,3,3,0,0,1,1.14.84A2.34,2.34,0,0,1,86,13.89a2.42,2.42,0,0,1-.46,1.46,3,3,0,0,1-1.32,1,4.91,4.91,0,0,1-2,.37A5.32,5.32,0,0,1,80.1,16.31Z"/><path class="cls-2" d="M94.18,14.39h3.74v2.2H91.33V4.88h2.85Z"/><path class="cls-2" d="M101.07,16.14a4.23,4.23,0,0,1-1.72-1.66,5,5,0,0,1-.63-2.54,4.88,4.88,0,0,1,.64-2.53,4.21,4.21,0,0,1,1.73-1.67,5.47,5.47,0,0,1,4.94,0,4.3,4.3,0,0,1,1.74,1.67,5,5,0,0,1,.63,2.53,4.88,4.88,0,0,1-.64,2.53A4.39,4.39,0,0,1,106,16.14a5.25,5.25,0,0,1-2.48.59A5.08,5.08,0,0,1,101.07,16.14Zm3.85-2.48a2.42,2.42,0,0,0,.58-1.72,2.44,2.44,0,0,0-.56-1.72,1.82,1.82,0,0,0-1.38-.6,1.8,1.8,0,0,0-1.38.59,2.45,2.45,0,0,0-.56,1.73,2.5,2.5,0,0,0,.55,1.72,1.75,1.75,0,0,0,1.36.6A1.85,1.85,0,0,0,104.92,13.66Z"/><path class="cls-2" d="M115.18,7.55a3,3,0,0,1,1.15,1V7.28h2.85v9.3a5.27,5.27,0,0,1-.51,2.33,3.93,3.93,0,0,1-1.55,1.66,5.05,5.05,0,0,1-2.6.61,5.39,5.39,0,0,1-3.35-1,3.68,3.68,0,0,1-1.47-2.65h2.82a1.38,1.38,0,0,0,.63.85,2.4,2.4,0,0,0,1.24.3,2,2,0,0,0,1.41-.5,2.2,2.2,0,0,0,.53-1.63V15.26a3.22,3.22,0,0,1-1.16,1.06,3.49,3.49,0,0,1-1.71.41,3.86,3.86,0,0,1-2.09-.59,4.15,4.15,0,0,1-1.48-1.69,5.64,5.64,0,0,1-.54-2.53,5.63,5.63,0,0,1,.54-2.52,4,4,0,0,1,1.48-1.66,3.86,3.86,0,0,1,2.09-.59A3.52,3.52,0,0,1,115.18,7.55Zm.55,2.7a2,2,0,0,0-2.88,0,2.26,2.26,0,0,0-.6,1.67,2.35,2.35,0,0,0,.6,1.7,2,2,0,0,0,2.88,0,2.34,2.34,0,0,0,.6-1.69A2.34,2.34,0,0,0,115.73,10.25Z"/><path class="cls-2" d="M121.46,5.87A1.4,1.4,0,0,1,121,4.78a1.46,1.46,0,0,1,.48-1.11,1.9,1.9,0,0,1,2.43,0,1.46,1.46,0,0,1,.48,1.11,1.4,1.4,0,0,1-.48,1.09,1.87,1.87,0,0,1-2.43,0Zm2.64,1.41v9.31h-2.85V7.28Z"/><path class="cls-2" d="M127.79,16.31a3.66,3.66,0,0,1-1.5-1.14,3,3,0,0,1-.62-1.63h2.82a1.08,1.08,0,0,0,.45.79,1.59,1.59,0,0,0,1,.3,1.39,1.39,0,0,0,.83-.21.65.65,0,0,0,.29-.54.63.63,0,0,0-.42-.6,8.23,8.23,0,0,0-1.35-.42,14.6,14.6,0,0,1-1.67-.49,3.08,3.08,0,0,1-1.15-.82A2.26,2.26,0,0,1,126,10a2.59,2.59,0,0,1,.44-1.46,3.06,3.06,0,0,1,1.3-1,5.14,5.14,0,0,1,2-.38,4.08,4.08,0,0,1,2.76.87,3.38,3.38,0,0,1,1.16,2.3H131a1.12,1.12,0,0,0-.42-.77,1.49,1.49,0,0,0-1-.28,1.25,1.25,0,0,0-.76.19.61.61,0,0,0-.27.53.65.65,0,0,0,.42.6,7.87,7.87,0,0,0,1.33.4,16.13,16.13,0,0,1,1.69.52,3,3,0,0,1,1.14.84,2.34,2.34,0,0,1,.51,1.54,2.42,2.42,0,0,1-.46,1.46,3,3,0,0,1-1.32,1,4.94,4.94,0,0,1-2,.37A5.28,5.28,0,0,1,127.79,16.31Z"/><path class="cls-2" d="M140.67,14.18v2.41h-1.45a3.58,3.58,0,0,1-2.42-.75,3.15,3.15,0,0,1-.87-2.48V9.65H134.8V7.28h1.13V5h2.85V7.28h1.87V9.65h-1.87v3.74a.79.79,0,0,0,.2.6,1,1,0,0,0,.67.19Z"/><path class="cls-2" d="M142.46,5.87A1.43,1.43,0,0,1,142,4.78a1.49,1.49,0,0,1,.47-1.11,1.76,1.76,0,0,1,1.23-.44,1.73,1.73,0,0,1,1.21.44,1.46,1.46,0,0,1,.48,1.11,1.4,1.4,0,0,1-.48,1.09,1.69,1.69,0,0,1-1.21.45A1.73,1.73,0,0,1,142.46,5.87Zm2.65,1.41v9.31h-2.86V7.28Z"/><path class="cls-2" d="M152.87,16.59,150,12.69v3.9h-2.85V4.25H150v6.82l2.82-3.79h3.52L152.5,12l3.9,4.63Z"/><path class="cls-2" d="M43.27,26.56a1,1,0,0,1-.41-.33.84.84,0,0,1-.16-.49h.47a.62.62,0,0,0,.2.4.68.68,0,0,0,.5.16.72.72,0,0,0,.5-.16.5.5,0,0,0,.18-.4.48.48,0,0,0-.11-.32.68.68,0,0,0-.26-.18l-.44-.14a2.76,2.76,0,0,1-.53-.17.92.92,0,0,1-.35-.27.94.94,0,0,1,0-1,.86.86,0,0,1,.4-.33,1.34,1.34,0,0,1,.58-.12,1.21,1.21,0,0,1,.78.24.88.88,0,0,1,.34.63h-.48a.52.52,0,0,0-.21-.34.72.72,0,0,0-.47-.15.64.64,0,0,0-.45.14.49.49,0,0,0-.18.4.44.44,0,0,0,.11.3.64.64,0,0,0,.25.18l.43.13a5.28,5.28,0,0,1,.54.19.92.92,0,0,1,.35.27.81.81,0,0,1,.14.51.9.9,0,0,1-.13.47.93.93,0,0,1-.38.35,1.33,1.33,0,0,1-.61.13A1.46,1.46,0,0,1,43.27,26.56Z"/><path class="cls-2" d="M46.91,24.09a1.16,1.16,0,0,1,.6-.15,1.31,1.31,0,0,1,.65.17,1.16,1.16,0,0,1,.45.48,1.46,1.46,0,0,1,.16.71,1.53,1.53,0,0,1-.16.72,1.25,1.25,0,0,1-.45.49,1.22,1.22,0,0,1-.65.17,1.15,1.15,0,0,1-.59-.15,1,1,0,0,1-.4-.38V27.9h-.44V24h.44v.48A1.18,1.18,0,0,1,46.91,24.09Zm1.29.69a.88.88,0,0,0-.32-.34.9.9,0,0,0-.46-.12.89.89,0,0,0-.45.12,1,1,0,0,0-.33.35,1.19,1.19,0,0,0,0,1,1,1,0,0,0,.33.35.89.89,0,0,0,.45.12.84.84,0,0,0,.78-.47,1.09,1.09,0,0,0,.12-.53A1.08,1.08,0,0,0,48.2,24.78Z"/><path class="cls-2" d="M50.57,24.06a1.05,1.05,0,0,1,.52-.12v.45H51q-.75,0-.75.81v1.44h-.44V24h.44v.43A.84.84,0,0,1,50.57,24.06Z"/><path class="cls-2" d="M54.45,25.48H52.32a.89.89,0,0,0,.27.61.86.86,0,0,0,.6.22.77.77,0,0,0,.47-.13.69.69,0,0,0,.27-.36h.48a1.14,1.14,0,0,1-.43.62,1.43,1.43,0,0,1-1.47.07A1.21,1.21,0,0,1,52,26a1.53,1.53,0,0,1-.17-.72,1.47,1.47,0,0,1,.17-.72,1.12,1.12,0,0,1,.46-.48,1.41,1.41,0,0,1,.69-.17,1.36,1.36,0,0,1,.67.17,1.12,1.12,0,0,1,.44.45,1.28,1.28,0,0,1,.16.65A2.53,2.53,0,0,1,54.45,25.48Zm-.56-.8a.66.66,0,0,0-.3-.27,1,1,0,0,0-.42-.1.81.81,0,0,0-.57.22.84.84,0,0,0-.27.59H54A.81.81,0,0,0,53.89,24.68Z"/><path class="cls-2" d="M55.48,24.59a1.16,1.16,0,0,1,.45-.48,1.28,1.28,0,0,1,.64-.17,1.17,1.17,0,0,1,.61.15,1,1,0,0,1,.38.38V24H58v2.65h-.45v-.49a1,1,0,0,1-.39.38,1.28,1.28,0,0,1-1.24,0,1.25,1.25,0,0,1-.45-.49,1.53,1.53,0,0,1-.17-.72A1.46,1.46,0,0,1,55.48,24.59Zm2,.19a.9.9,0,0,0-.33-.34.84.84,0,0,0-.45-.12.89.89,0,0,0-.45.12.88.88,0,0,0-.32.34,1.08,1.08,0,0,0-.12.52,1.09,1.09,0,0,0,.12.53.91.91,0,0,0,.32.35.89.89,0,0,0,.45.12.84.84,0,0,0,.45-.12.86.86,0,0,0,.33-.35,1.08,1.08,0,0,0,.12-.52A1.12,1.12,0,0,0,57.44,24.78Z"/><path class="cls-2" d="M59.19,24.59a1.16,1.16,0,0,1,.45-.48,1.31,1.31,0,0,1,.65-.17,1.27,1.27,0,0,1,.58.14,1.08,1.08,0,0,1,.41.38V23.05h.44v3.59h-.44v-.5a1,1,0,0,1-.39.39,1.16,1.16,0,0,1-.6.15,1.22,1.22,0,0,1-.65-.17,1.25,1.25,0,0,1-.45-.49A1.53,1.53,0,0,1,59,25.3,1.46,1.46,0,0,1,59.19,24.59Zm2,.19a1,1,0,0,0-.33-.34.9.9,0,0,0-.46-.12.89.89,0,0,0-.45.12.88.88,0,0,0-.32.34,1.08,1.08,0,0,0-.12.52,1.09,1.09,0,0,0,.12.53.91.91,0,0,0,.32.35.89.89,0,0,0,.45.12.9.9,0,0,0,.46-.12.93.93,0,0,0,.33-.35,1.08,1.08,0,0,0,.12-.52A1.12,1.12,0,0,0,61.16,24.78Z"/><path class="cls-2" d="M65.08,23.62v1.13h1.23v.36H65.08v1.17h1.37v.36H64.64V23.26h1.81v.36Z"/><path class="cls-2" d="M68.94,26.64l-.63-1-.6,1h-.46l.86-1.32L67.25,24h.5l.63,1,.6-1h.46l-.85,1.31.85,1.34Z"/><path class="cls-2" d="M70.32,24.59a1.16,1.16,0,0,1,.45-.48,1.37,1.37,0,0,1,.68-.17,1.29,1.29,0,0,1,.8.24,1.1,1.1,0,0,1,.42.66H72.2a.7.7,0,0,0-.27-.38.84.84,0,0,0-1.09.11,1.06,1.06,0,0,0-.24.74,1,1,0,0,0,.24.74.77.77,0,0,0,.61.26.82.82,0,0,0,.48-.13.69.69,0,0,0,.27-.39h.47a1.16,1.16,0,0,1-.42.65,1.31,1.31,0,0,1-.8.24,1.27,1.27,0,0,1-.68-.17,1.2,1.2,0,0,1-.45-.47,1.54,1.54,0,0,1-.17-.73A1.47,1.47,0,0,1,70.32,24.59Z"/><path class="cls-2" d="M76.1,25.48H74a.89.89,0,0,0,.27.61.83.83,0,0,0,.59.22.82.82,0,0,0,.48-.13.69.69,0,0,0,.27-.36h.47a1.12,1.12,0,0,1-.42.62,1.29,1.29,0,0,1-.8.24,1.26,1.26,0,0,1-.67-.17A1.15,1.15,0,0,1,73.7,26a1.53,1.53,0,0,1-.17-.72,1.59,1.59,0,0,1,.16-.72,1.21,1.21,0,0,1,.47-.48,1.4,1.4,0,0,1,.68-.17,1.31,1.31,0,0,1,.67.17,1.08,1.08,0,0,1,.45.45,1.28,1.28,0,0,1,.16.65A2.65,2.65,0,0,1,76.1,25.48Zm-.55-.8a.66.66,0,0,0-.3-.27,1,1,0,0,0-.43-.1.8.8,0,0,0-.56.22.84.84,0,0,0-.27.59h1.67A.8.8,0,0,0,75.55,24.68Z"/><path class="cls-2" d="M77.58,23.05v3.59h-.44V23.05Z"/><path class="cls-2" d="M81.17,25.48H79.05a.89.89,0,0,0,.27.61.83.83,0,0,0,.59.22.82.82,0,0,0,.48-.13.69.69,0,0,0,.27-.36h.48a1.19,1.19,0,0,1-.43.62,1.29,1.29,0,0,1-.8.24,1.26,1.26,0,0,1-.67-.17,1.15,1.15,0,0,1-.47-.48,1.53,1.53,0,0,1-.17-.72,1.47,1.47,0,0,1,.17-.72,1.12,1.12,0,0,1,.46-.48,1.4,1.4,0,0,1,.68-.17,1.31,1.31,0,0,1,.67.17,1.08,1.08,0,0,1,.45.45,1.28,1.28,0,0,1,.16.65A2.65,2.65,0,0,1,81.17,25.48Zm-.55-.8a.66.66,0,0,0-.3-.27,1,1,0,0,0-.43-.1.8.8,0,0,0-.56.22.84.84,0,0,0-.27.59h1.67A.8.8,0,0,0,80.62,24.68Z"/><path class="cls-2" d="M84.29,24.23a1.13,1.13,0,0,1,.3.85v1.56h-.44v-1.5a.86.86,0,0,0-.2-.61.7.7,0,0,0-.54-.21.73.73,0,0,0-.56.22.9.9,0,0,0-.2.63v1.47h-.44V24h.44v.37a.81.81,0,0,1,.35-.31,1,1,0,0,1,.5-.11A1.07,1.07,0,0,1,84.29,24.23Z"/><path class="cls-2" d="M86.28,24.35v1.56a.38.38,0,0,0,.09.28.41.41,0,0,0,.28.08H87v.37h-.4a.74.74,0,0,1-.55-.17.7.7,0,0,1-.19-.56V24.35H85.5V24h.34v-.67h.44V24H87v.36Z"/><path class="cls-2" d="M90.15,26.56a1,1,0,0,1-.42-.33.84.84,0,0,1-.15-.49h.47a.62.62,0,0,0,.2.4.85.85,0,0,0,1,0,.48.48,0,0,0,.19-.4.48.48,0,0,0-.11-.32.64.64,0,0,0-.27-.18l-.43-.14a2.76,2.76,0,0,1-.53-.17.92.92,0,0,1-.35-.27.94.94,0,0,1,0-1,.84.84,0,0,1,.39-.33,1.38,1.38,0,0,1,.59-.12,1.23,1.23,0,0,1,.78.24.88.88,0,0,1,.34.63h-.49a.47.47,0,0,0-.2-.34.72.72,0,0,0-.47-.15.68.68,0,0,0-.46.14.51.51,0,0,0-.17.4.44.44,0,0,0,.1.3.68.68,0,0,0,.26.18l.43.13c.22.07.4.13.54.19a1,1,0,0,1,.35.27.88.88,0,0,1,.14.51.9.9,0,0,1-.13.47,1,1,0,0,1-.39.35,1.26,1.26,0,0,1-.6.13A1.4,1.4,0,0,1,90.15,26.56Z"/><path class="cls-2" d="M95.37,25.48H93.24a.89.89,0,0,0,.27.61.86.86,0,0,0,.6.22.82.82,0,0,0,.48-.13.73.73,0,0,0,.26-.36h.48a1.09,1.09,0,0,1-.43.62,1.43,1.43,0,0,1-1.47.07A1.21,1.21,0,0,1,93,26a1.53,1.53,0,0,1-.17-.72,1.47,1.47,0,0,1,.17-.72,1.12,1.12,0,0,1,.46-.48,1.41,1.41,0,0,1,.69-.17,1.36,1.36,0,0,1,.67.17,1.21,1.21,0,0,1,.45.45,1.38,1.38,0,0,1,.15.65A2.53,2.53,0,0,1,95.37,25.48Zm-.56-.8a.66.66,0,0,0-.3-.27,1,1,0,0,0-.42-.1.83.83,0,0,0-.57.22.84.84,0,0,0-.27.59h1.68A.81.81,0,0,0,94.81,24.68Z"/><path class="cls-2" d="M97.17,24.06a1.09,1.09,0,0,1,.53-.12v.45h-.12c-.49,0-.74.27-.74.81v1.44H96.4V24h.44v.43A.89.89,0,0,1,97.17,24.06Z"/><path class="cls-2" d="M99.63,26.23l.83-2.24h.47l-1,2.65h-.52l-1-2.65h.47Z"/><path class="cls-2" d="M101.81,23.47a.33.33,0,0,1-.08-.22.32.32,0,0,1,.08-.21A.29.29,0,0,1,102,23a.25.25,0,0,1,.2.09.29.29,0,0,1,.09.21.29.29,0,0,1-.09.22.28.28,0,0,1-.2.08A.33.33,0,0,1,101.81,23.47Zm.43.52v2.65h-.44V24Z"/><path class="cls-2" d="M103.43,24.59a1.12,1.12,0,0,1,.46-.48,1.33,1.33,0,0,1,.67-.17,1.29,1.29,0,0,1,.8.24,1.06,1.06,0,0,1,.42.66h-.47a.69.69,0,0,0-.26-.38.81.81,0,0,0-.49-.15.79.79,0,0,0-.61.26,1.06,1.06,0,0,0-.24.74,1,1,0,0,0,.24.74.79.79,0,0,0,.61.26.82.82,0,0,0,.48-.13.69.69,0,0,0,.27-.39h.47a1.16,1.16,0,0,1-.42.65,1.31,1.31,0,0,1-.8.24,1.24,1.24,0,0,1-.67-.17,1.16,1.16,0,0,1-.46-.47,1.54,1.54,0,0,1-.17-.73A1.47,1.47,0,0,1,103.43,24.59Z"/><path class="cls-2" d="M109.22,25.48h-2.13a.89.89,0,0,0,.27.61.86.86,0,0,0,.6.22.77.77,0,0,0,.47-.13.69.69,0,0,0,.27-.36h.48a1.14,1.14,0,0,1-.43.62,1.43,1.43,0,0,1-1.47.07,1.21,1.21,0,0,1-.47-.48,1.53,1.53,0,0,1-.17-.72,1.47,1.47,0,0,1,.17-.72,1.12,1.12,0,0,1,.46-.48,1.41,1.41,0,0,1,.69-.17,1.36,1.36,0,0,1,.67.17,1.12,1.12,0,0,1,.44.45,1.28,1.28,0,0,1,.16.65A2.53,2.53,0,0,1,109.22,25.48Zm-.56-.8a.66.66,0,0,0-.3-.27,1,1,0,0,0-.42-.1.81.81,0,0,0-.57.22.84.84,0,0,0-.27.59h1.67A.8.8,0,0,0,108.66,24.68Z"/><path class="cls-2" d="M110.64,26.58a.94.94,0,0,1-.38-.29.73.73,0,0,1-.16-.43h.46a.44.44,0,0,0,.19.33.71.71,0,0,0,.43.12.68.68,0,0,0,.4-.11.33.33,0,0,0,.15-.28.27.27,0,0,0-.16-.26,2.11,2.11,0,0,0-.48-.17,3.49,3.49,0,0,1-.48-.15,1.08,1.08,0,0,1-.32-.24.64.64,0,0,1-.13-.42.63.63,0,0,1,.12-.37.85.85,0,0,1,.34-.27,1.19,1.19,0,0,1,.51-.1,1.11,1.11,0,0,1,.71.22.81.81,0,0,1,.29.61h-.44a.46.46,0,0,0-.16-.33.67.67,0,0,0-.41-.13.61.61,0,0,0-.38.11.28.28,0,0,0-.14.26.33.33,0,0,0,.08.22.54.54,0,0,0,.22.13,2,2,0,0,0,.35.12,3.78,3.78,0,0,1,.47.15.76.76,0,0,1,.3.23.56.56,0,0,1,.14.39.67.67,0,0,1-.12.39.86.86,0,0,1-.34.28,1.36,1.36,0,0,1-.51.09A1.38,1.38,0,0,1,110.64,26.58Z"/><path class="cls-3" d="M18.58,14.32a5.34,5.34,0,0,1-.19-7.38c1.76-1.76,6.24-2.67,8.43-.48s1.28,6.67-.48,8.43S20.77,16.51,18.58,14.32Zm7.08-6.7c-1.45-1.46-4.87-.76-6.11.48s-.79,3.31.77,4.86,3.74,1.9,4.86.77S27.12,9.07,25.66,7.62Z"/><path class="cls-3" d="M0,33.27v-11a7,7,0,0,1,7-7h8.8a2.17,2.17,0,0,1,1.54.64,2.1,2.1,0,0,1,.63,1.53v8.8a7,7,0,0,1-7,7Zm16.09-16.2a.55.55,0,0,0-.34-.11H7A5.36,5.36,0,0,0,1.63,22.3v9.34H11a5.33,5.33,0,0,0,5.34-5.34V17.5A.53.53,0,0,0,16.09,17.07Z"/><path class="cls-3" d="M33.19,21.76a7,7,0,0,0-7-7H20.84a2.43,2.43,0,0,1-2.43-2.43V7a7,7,0,0,0-7-7h-9V8.9a7.06,7.06,0,0,0,1.77,4.72A6.93,6.93,0,0,0,9.43,16H16a1.2,1.2,0,0,1,1.2,1.2v6.53A7.08,7.08,0,0,0,19,28.4a7,7,0,0,0,5.21,2.34h9ZM9.43,14.32a5.3,5.3,0,0,1-3.86-1.65A5.45,5.45,0,0,1,4.09,8.89V1.63h7.35A5.34,5.34,0,0,1,16.77,7v7.35ZM24.21,29.1a5.28,5.28,0,0,1-3.86-1.65,5.43,5.43,0,0,1-1.48-3.77V16.42h7.35a5.35,5.35,0,0,1,5.34,5.34V29.1Z"/><path id="Opsi_1" data-name="Opsi 1" class="cls-1" d="M2.71,30.48V23a5,5,0,0,1,5-4.95h6.82a.69.69,0,0,1,.69.69v6.82a5,5,0,0,1-4.95,5Z"/><path class="cls-1" d="M20.28,8.55c-.88.88-.61,2.58.61,3.8s2.91,1.48,3.79.6a4.43,4.43,0,0,0,.81-4.09l-.14-.3a2.19,2.19,0,0,0-.29-.39C23.92,7,21.25,7.58,20.28,8.55Z"/><path class="cls-3" d="M11.24,2.87H5.32V8.66A4.5,4.5,0,0,0,6.5,11.75a4.3,4.3,0,0,0,3.12,1.34h5.92V7.17A4.31,4.31,0,0,0,11.24,2.87Z"/><path class="cls-3" d="M26,17.63H20.09v5.81a4.46,4.46,0,0,0,1.18,3.1,4.29,4.29,0,0,0,3.13,1.35h5.94V22A4.32,4.32,0,0,0,26,17.63Z"/><polygon class="cls-3" points="24.54 6.21 24.54 2.15 25.76 3.38 25.76 7.43 24.54 6.21"/><polygon class="cls-3" points="27.03 8.7 31.09 8.7 29.86 7.48 25.8 7.48 27.03 8.7"/><g id="Opsi_2" data-name="Opsi 2"><path class="cls-1" d="M2.71,30.48V23a5,5,0,0,1,5-4.95h6.82a.69.69,0,0,1,.69.69v6.82a5,5,0,0,1-4.95,5Z"/><g class="cls-4"><path class="cls-5" d="M6.7,14.91A15.95,15.95,0,0,0,19.52,27.74"/><path class="cls-5" d="M1.67,19.43a16.22,16.22,0,0,0,5,9,16.12,16.12,0,0,0,7.85,3.86"/></g></g></g></g></svg>